# xmcd
#
# Track frame offsets:
#        182
#        12017
#        33340
#        53190
#        74495
#        90652
#        107570
#        123317
#        143672
#        168125
#        183950
#        211325
#        228850
#        244317
#        258930
#        280637
#
# Disc length: 4031 seconds
#
# Revision: 0
# Processed by: cddbd v1.5.1PL0 Copyright (c) Steve Scherf et al.
# Submitted via: ExactAudioCopy v0.95a4
#
DISCID=cf0fbd10
DTITLE=Various Artist - Hit Heroes 1970-1989 2
DYEAR=1900
DGENRE=Pop
TTITLE0=England Dan and John Ford Coley - I'd Really Love To See You Ton
TTITLE0=ight
TTITLE1=Ambrosia - How Much I Feel
TTITLE2=Foreigner - Hot Blooded
TTITLE3=Chris Rea - Fool (If You Think It's Over)
TTITLE4=Chic - Le Freak
TTITLE5=The Doobie Brothers - What A Fool Believes
TTITLE6=Rickie Lee Jones - Chuck E.'s In Love
TTITLE7=Christopher Cross - Ride Like The Wind
TTITLE8=Ambrosia - Biggest Part Of Me
TTITLE9=Robbie Dupree - Steal Away
TTITLE10=The Manhattan Transfer - Twilight Zone - Twilight Tone
TTITLE11=Christopher Cross - Arthur's Theme
TTITLE12=Patti Austin - Do You Love Me
TTITLE13=Joey Scarbury - Theme From "Greatest American Hero"
TTITLE14=Foreigner - Waiting For A Girl Like You
TTITLE15=Laura Branigan - Gloria
EXTD=
EXTT0=
EXTT1=
EXTT2=
EXTT3=
EXTT4=
EXTT5=
EXTT6=
EXTT7=
EXTT8=
EXTT9=
EXTT10=
EXTT11=
EXTT12=
EXTT13=
EXTT14=
EXTT15=
PLAYORDER=
